<svg width="278" height="167" viewBox="0 0 278 167" fill="none" xmlns="http://www.w3.org/2000/svg">
<path d="M5.73985 96.0744C-1.18234 89.1522 -1.18234 77.9291 5.73986 71.0069L70.3468 6.40001C77.269 -0.522185 88.4921 -0.522184 95.4143 6.40001L160.021 71.0069C166.943 77.9291 166.943 89.1522 160.021 96.0744L95.4143 160.681C88.4921 167.604 77.269 167.604 70.3468 160.681L5.73985 96.0744Z" stroke="#A1A1A3" stroke-width="1.09642"/>
<path d="M61.8976 96.0378C54.9956 89.1358 54.9956 77.9455 61.8976 71.0436L126.505 6.43663C133.406 -0.465337 144.597 -0.465335 151.499 6.43663L216.106 71.0436C223.008 77.9455 223.008 89.1358 216.106 96.0378L151.499 160.645C144.597 167.547 133.406 167.547 126.505 160.645L61.8976 96.0378Z" stroke="#F6F6F6" stroke-width="1.2"/>
<path d="M117.978 96.0744C111.056 89.1522 111.056 77.9291 117.978 71.0069L182.585 6.40001C189.507 -0.522185 200.73 -0.522184 207.653 6.40001L272.26 71.0069C279.182 77.9291 279.182 89.1522 272.26 96.0744L207.653 160.681C200.73 167.604 189.507 167.604 182.585 160.681L117.978 96.0744Z" stroke="#A1A1A3" stroke-width="1.09642"/>
</svg>
