<svg width="491" height="235" viewBox="0 0 491 235" fill="none" xmlns="http://www.w3.org/2000/svg">
<path d="M8.12913 135.131C-1.6745 125.328 -1.6745 109.433 8.12913 99.6294L99.6294 8.12913C109.433 -1.6745 125.328 -1.6745 135.131 8.12913L226.632 99.6294C236.435 109.433 236.435 125.328 226.632 135.131L135.131 226.632C125.328 236.435 109.433 236.435 99.6294 226.632L8.12913 135.131Z" stroke="#424446" stroke-width="1.55281"/>
<path d="M93.3958 135.08C83.6209 125.305 83.6209 109.456 93.3958 99.6812L184.896 8.18099C194.671 -1.59399 210.519 -1.59399 220.294 8.181L311.795 99.6812C321.57 109.456 321.57 125.305 311.795 135.08L220.294 226.58C210.519 236.355 194.671 236.355 184.896 226.58L93.3958 135.08Z" stroke="#424446" stroke-width="1.69951"/>
<path d="M178.563 135.131C168.759 125.328 168.759 109.433 178.563 99.6294L270.063 8.12913C279.867 -1.6745 295.761 -1.6745 305.565 8.12913L397.065 99.6294C406.869 109.433 406.869 125.328 397.065 135.131L305.565 226.632C295.761 236.435 279.867 236.435 270.063 226.632L178.563 135.131Z" stroke="#424446" stroke-width="1.55281"/>
<path d="M263.778 135.131C253.974 125.328 253.974 109.433 263.778 99.6294L355.278 8.12913C365.081 -1.6745 380.976 -1.6745 390.78 8.12913L482.28 99.6294C492.084 109.433 492.084 125.328 482.28 135.131L390.78 226.632C380.976 236.435 365.081 236.435 355.278 226.632L263.778 135.131Z" stroke="#424446" stroke-width="1.55281"/>
</svg>
