<svg width="30" height="30" viewBox="0 0 30 30" fill="none" xmlns="http://www.w3.org/2000/svg">
<rect width="30" height="30" rx="15" transform="matrix(1 0 0 -1 0 30)" fill="#F4F4F5"/>
<path d="M12.4384 18.5712H15.3154C15.706 18.5712 16.0299 18.895 16.0299 19.2856C16.0299 19.6761 15.706 20 15.3154 20H10.7144C10.3239 20 10 19.6761 10 19.2856V14.6847C10 14.2941 10.3239 13.9703 10.7144 13.9703C11.105 13.9703 11.4289 14.2941 11.4289 14.6847V17.5612L18.7831 10.2072C19.0593 9.93094 19.5166 9.93094 19.7928 10.2072C20.0691 10.4834 20.0691 10.9407 19.7928 11.2169L12.4384 18.5712Z" fill="#919197"/>
</svg>
