<svg width="28" height="28" viewBox="0 0 28 28" fill="none" xmlns="http://www.w3.org/2000/svg">
<rect width="28" height="28" rx="14" fill="#F4F4F5"/>
<path d="M9.5 13.4C9.16863 13.4 8.9 13.6686 8.9 14C8.9 14.3314 9.16863 14.6 9.5 14.6L9.5 13.4ZM18.9243 14.4243C19.1586 14.19 19.1586 13.8101 18.9243 13.5757L15.1059 9.75736C14.8716 9.52305 14.4917 9.52305 14.2574 9.75736C14.023 9.99167 14.023 10.3716 14.2574 10.6059L17.6515 14L14.2574 17.3941C14.023 17.6284 14.023 18.0083 14.2574 18.2426C14.4917 18.477 14.8716 18.477 15.1059 18.2426L18.9243 14.4243ZM9.5 14.6L18.5 14.6L18.5 13.4L9.5 13.4L9.5 14.6Z" fill="#202020"/>
</svg>
