<svg width="20" height="20" viewBox="0 0 20 20" fill="none" xmlns="http://www.w3.org/2000/svg">
<rect width="20" height="20" rx="10" fill="#BBBCBD"/>
<path d="M10.6 6C10.6 5.66863 10.3314 5.4 10 5.4C9.66863 5.4 9.4 5.66863 9.4 6L10.6 6ZM9.57574 14.4243C9.81005 14.6586 10.1899 14.6586 10.4243 14.4243L14.2426 10.6059C14.477 10.3716 14.477 9.99167 14.2426 9.75736C14.0083 9.52304 13.6284 9.52304 13.3941 9.75736L10 13.1515L6.60589 9.75736C6.37157 9.52304 5.99167 9.52304 5.75736 9.75736C5.52304 9.99167 5.52304 10.3716 5.75736 10.6059L9.57574 14.4243ZM9.4 6L9.4 14L10.6 14L10.6 6L9.4 6Z" fill="#27282A"/>
</svg>
