<svg width="20" height="20" viewBox="0 0 20 20" fill="none" xmlns="http://www.w3.org/2000/svg">
    <rect width="20" height="20" rx="10" fill="#BBBCBD"/>
    <path d="M9.34676 10.5907H6.59072C6.26447 10.5907 6 10.3262 6 10C6 9.67376 6.26447 9.40928 6.59072 9.40928H9.34676V6.65324C9.34676 6.29247 9.63922 6 10 6C10.3608 6 10.6532 6.29247 10.6532 6.65324V9.40928H13.4093C13.7355 9.40928 14 9.67376 14 10C14 10.3262 13.7355 10.5907 13.4093 10.5907H10.6532V13.3468C10.6532 13.7075 10.3608 14 10 14C9.63922 14 9.34676 13.7075 9.34676 13.3468V10.5907Z" fill="#212121"/>
</svg>
