<svg width="21" height="21" viewBox="0 0 21 21" fill="none" xmlns="http://www.w3.org/2000/svg">
<rect width="21" height="21" rx="10.5" fill="#F4F4F5"/>
<path d="M9.77038 11.1587H6.69444C6.33033 11.1587 6.03516 10.8636 6.03516 10.4994C6.03516 10.1353 6.33033 9.84016 6.69444 9.84016H9.77038V6.76422C9.77038 6.36157 10.0968 6.03516 10.4994 6.03516C10.9021 6.03516 11.2285 6.36157 11.2285 6.76422V9.84016H14.3044C14.6686 9.84016 14.9637 10.1353 14.9637 10.4994C14.9637 10.8636 14.6686 11.1587 14.3044 11.1587H11.2285V14.2347C11.2285 14.6373 10.9021 14.9637 10.4994 14.9637C10.0968 14.9637 9.77038 14.6373 9.77038 14.2347V11.1587Z" fill="#5D5F64"/>
</svg>
